<?xml version="1.0" encoding="UTF-8"?>
<svg width="100pt" height="100pt" version="1.1" viewBox="0 0 100 100" xmlns="http://www.w3.org/2000/svg">
 <g>
  <path d="m28.68 73.035c0 3.4492-5.1758 3.4492-5.1758 0 0-3.4531 5.1758-3.4531 5.1758 0"/>
  <path d="m75.391 64.539h-6c-0.36719 0-0.66406 0.29688-0.66406 0.66406s-0.29687 0.66406-0.66406 0.66406h-15.672c-0.36719 0-0.66406 0.29687-0.66406 0.66406v0.0625c0 0.36719 0.29688 0.66406 0.66406 0.66406h15.672c0.36719 0 0.66406 0.29688 0.66406 0.66406s0.29688 0.66406 0.66406 0.66406h6c0.36719 0 0.66406-0.29688 0.66406-0.66406v-2.7188c0-0.36328-0.29688-0.66406-0.66406-0.66406z"/>
  <path d="m68.062 89.711h5.9961c0.36719 0 0.66406-0.29688 0.66406-0.66406v-3.0273c0-0.36719-0.29688-0.66406-0.66406-0.66406h-5.9961c-0.36719 0-0.66406 0.29688-0.66406 0.66406v3.0273c0 0.36719 0.29687 0.66406 0.66406 0.66406z"/>
  <path d="m74.223 12.941c-16-1.1758-32.004-1.1758-48.004 0-0.92188 0.070313-1.7656 0.875-1.875 1.7969-1.4414 12.328-1.4414 24.652 0 36.98 0.10938 0.92188 0.95312 1.7305 1.875 1.7969 16 1.1758 32.004 1.1758 48.004 0 0.92188-0.070313 1.7656-0.875 1.875-1.7969 1.4414-12.328 1.4414-24.652 0-36.98-0.10938-0.92188-0.95312-1.7266-1.875-1.7969z"/>
  <path d="m79.082 5.0781h-58.164c-2.4258 0-4.3984 1.9727-4.3984 4.3984v68.531c0 2.1953 1.6172 4.0156 3.7227 4.3398v9.9102c0 1.4922 1.4648 2.6602 3.3281 2.6602h52.855c1.8672 0 3.3281-1.168 3.3281-2.6602v-9.9102c2.1055-0.32812 3.7227-2.1445 3.7227-4.3398v-68.531c0.003907-2.4258-1.9688-4.3984-4.3945-4.3984zm-1.9844 87.023c-0.10938 0.070313-0.34375 0.16016-0.67188 0.16016h-52.855c-0.32812 0-0.5625-0.089844-0.67187-0.16016v-9.6953h54.199zm3.7227-14.094c0 0.96094-0.78125 1.7383-1.7383 1.7383h-58.164c-0.96094 0-1.7383-0.78125-1.7383-1.7383v-68.531c0-0.96094 0.78125-1.7383 1.7383-1.7383h58.164c0.96094 0 1.7383 0.78125 1.7383 1.7383z"/>
 </g>
</svg>
