<?xml version="1.0" encoding="UTF-8"?>
<svg width="100pt" height="100pt" version="1.1" viewBox="0 0 100 100" xmlns="http://www.w3.org/2000/svg">
 <g>
  <path d="m28.52 97h42.965c5.4062 0 9.8047-4.3984 9.8047-9.8047v-65.824h6.1992c1.1055 0 2-0.89453 2-2 0-1.1055-0.89453-2-2-2h-21.992v-4.5664c0-5.4062-4.3945-9.8047-9.8008-9.8047h-11.391c-5.4062 0-9.8047 4.3984-9.8047 9.8047v4.5664h-21.984c-1.1055 0-2 0.89453-2 2 0 1.1055 0.89453 2 2 2h6.1992v65.824c0 5.4062 4.3945 9.8047 9.8047 9.8047zm9.9844-84.195c0-3.1992 2.6055-5.8047 5.8047-5.8047h11.391c3.1992 0 5.8047 2.6055 5.8047 5.8047v4.5664h-23zm-2 8.5664h40.785v65.824c0 3.1992-2.6055 5.8047-5.8047 5.8047h-42.965c-3.1992 0-5.8047-2.6055-5.8047-5.8047v-65.824z"/>
  <path d="m32.109 83.344c1.1055 0 2-0.89453 2-2v-49.332c0-1.1055-0.89453-2-2-2s-2 0.89453-2 2v49.332c0 1.1055 0.89453 2 2 2z"/>
  <path d="m50 83.344c1.1055 0 2-0.89453 2-2v-49.332c0-1.1055-0.89453-2-2-2s-2 0.89453-2 2v49.332c0 1.1055 0.89453 2 2 2z"/>
  <path d="m67.891 83.344c1.1055 0 2-0.89453 2-2v-49.332c0-1.1055-0.89453-2-2-2s-2 0.89453-2 2v49.332c0 1.1055 0.89453 2 2 2z"/>
 </g>
</svg>
